<svg width="18" height="17" viewBox="0 0 18 17" fill="none" xmlns="http://www.w3.org/2000/svg">
<path d="M9.00002 0.425049C4.31312 0.425049 0.500023 3.85678 0.500023 8.07505C0.500023 9.5498 0.966673 10.9781 1.85096 12.2128C1.68351 14.065 1.23471 15.44 0.583039 16.0914C0.496906 16.1775 0.475373 16.3093 0.529773 16.4181C0.578223 16.5153 0.677106 16.575 0.783356 16.575C0.796389 16.575 0.809706 16.5742 0.823023 16.5722C0.937773 16.5561 3.60337 16.1721 5.53117 15.0598C6.62625 15.5015 7.79245 15.725 9.00002 15.725C13.6869 15.725 17.5 12.2933 17.5 8.07505C17.5 3.85678 13.6869 0.425049 9.00002 0.425049Z" fill="white"/>
</svg>
