<svg width="20" height="20" viewBox="0 0 20 20" fill="none" xmlns="http://www.w3.org/2000/svg">
<path d="M18.9478 8.78579L3.11206 0.559462C2.84561 0.42106 2.53997 0.361393 2.23599 0.388436C1.93201 0.41548 1.64416 0.527945 1.41092 0.710801C1.17769 0.893658 1.01017 1.13819 0.930757 1.41173C0.851345 1.68527 0.863823 1.97477 0.966523 2.24155L3.68564 9.30419H10.7499C10.9489 9.30419 11.1396 9.37749 11.2803 9.50797C11.4209 9.63844 11.4999 9.8154 11.4999 9.99992C11.4999 10.1844 11.4209 10.3614 11.2803 10.4919C11.1396 10.6224 10.9489 10.6957 10.7499 10.6957H3.68564L0.966523 17.7583C0.886138 17.9682 0.86113 18.193 0.893593 18.4137C0.926057 18.6345 1.01505 18.8448 1.15311 19.0271C1.29118 19.2094 1.47431 19.3584 1.68718 19.4615C1.90004 19.5647 2.13645 19.6191 2.37662 19.6201C2.63435 19.6197 2.88763 19.5578 3.11215 19.4404L18.9478 11.2141C19.1804 11.0932 19.3741 10.917 19.5089 10.7036C19.6438 10.4902 19.7149 10.2473 19.7149 9.99995C19.7149 9.75259 19.6438 9.50971 19.509 9.2963C19.3742 9.08289 19.1805 8.90667 18.9478 8.78579Z" fill="#276749"/>
</svg>
